<?xml version="1.0" encoding="UTF-8"?>
<!-- Original artwork: generated from Natural Earth public domain data (naturalearthdata.com). No attribution required. -->
<svg xmlns="http://www.w3.org/2000/svg" width="1400" height="1600" viewBox="0 0 1400 1600">
  <g fill="#D8C8B2" stroke="#C9B9A2" stroke-width="1.5">
    <path d="M 411.7 992.0 L 408.3 995.5 L 401.9 994.3 L 398.2 989.3 L 399.4 983.6 L 406.1 979.3 L 412.5 988.0 L 411.7 992.0 Z"/>
<path d="M 782.2 841.1 L 775.1 841.3 L 773.3 840.4 L 777.6 838.1 L 778.0 834.2 L 780.5 827.3 L 780.5 825.3 L 774.9 825.0 L 775.2 817.1 L 779.4 809.4 L 790.9 797.3 L 794.0 795.0 L 794.5 800.3 L 791.0 812.9 L 790.3 817.4 L 799.4 818.4 L 793.6 833.4 L 782.2 841.1 Z"/>
<path d="M 528.1 1170.7 L 520.0 1178.6 L 513.0 1178.1 L 509.5 1174.5 L 508.3 1170.1 L 515.0 1163.2 L 520.7 1153.5 L 525.9 1149.1 L 530.1 1146.7 L 533.4 1146.8 L 526.0 1160.4 L 528.1 1170.7 Z"/>
<path d="M 166.8 1362.7 L 160.9 1366.0 L 160.1 1362.8 L 157.7 1361.4 L 161.9 1356.9 L 161.8 1354.8 L 159.1 1351.8 L 162.2 1340.4 L 161.4 1335.4 L 173.1 1333.6 L 175.3 1338.2 L 175.5 1352.3 L 166.8 1362.7 Z"/>
<path d="M 107.0 1186.0 L 102.1 1189.8 L 100.0 1184.0 L 102.1 1167.6 L 111.2 1171.0 L 111.1 1176.0 L 107.0 1186.0 Z"/>
<path d="M 114.9 1164.6 L 113.3 1169.1 L 108.3 1165.9 L 106.0 1163.0 L 110.7 1148.9 L 110.1 1143.5 L 110.4 1140.9 L 119.7 1133.5 L 121.3 1134.9 L 121.9 1137.0 L 121.1 1140.1 L 121.5 1147.1 L 114.5 1158.7 L 114.9 1164.6 Z"/>
<path d="M 61.2 1311.0 L 64.1 1313.5 L 68.3 1312.0 L 71.7 1311.7 L 74.1 1312.9 L 77.2 1319.4 L 78.3 1323.3 L 72.8 1323.8 L 70.5 1324.7 L 67.6 1329.4 L 63.3 1327.7 L 60.6 1325.5 L 60.0 1322.3 L 61.2 1311.0 Z"/>
<path d="M 189.0 1344.6 L 182.4 1345.0 L 179.7 1343.9 L 178.6 1340.9 L 187.8 1334.9 L 195.0 1336.0 L 191.8 1341.4 L 189.0 1344.6 Z"/>
<path d="M 985.4 140.5 L 982.5 146.5 L 978.7 137.7 L 977.9 128.2 L 980.1 128.2 L 984.2 129.7 L 985.2 134.3 L 985.4 140.5 Z"/>
<path d="M 1002.0 160.4 L 996.8 161.1 L 990.8 157.2 L 990.1 152.3 L 994.4 148.5 L 998.8 149.9 L 1003.1 154.9 L 1004.5 157.5 L 1002.0 160.4 Z"/>
<path d="M 866.9 443.8 L 865.2 444.3 L 863.4 443.5 L 861.7 436.5 L 863.2 432.8 L 868.0 430.2 L 872.6 429.5 L 868.6 442.4 L 866.9 443.8 Z"/>
<path d="M 484.8 1152.4 L 483.4 1154.3 L 482.1 1153.8 L 477.3 1158.1 L 476.3 1154.0 L 472.6 1151.3 L 472.1 1149.1 L 482.9 1147.7 L 486.3 1148.8 L 484.8 1152.4 Z"/>
<path d="M 865.0 1129.8 L 864.2 1134.2 L 860.2 1133.2 L 858.3 1130.3 L 858.6 1125.2 L 862.8 1125.2 L 865.0 1129.8 Z"/>
<path d="M 91.9 1305.7 L 90.0 1306.7 L 87.6 1298.3 L 85.9 1295.3 L 88.7 1293.7 L 94.3 1278.5 L 95.3 1284.5 L 97.5 1290.5 L 99.7 1291.5 L 97.6 1295.8 L 94.5 1297.5 L 91.9 1305.7 Z"/>
<path d="M 122.8 1270.0 L 117.5 1274.4 L 113.7 1274.4 L 117.2 1269.3 L 117.7 1266.8 L 120.5 1259.9 L 126.2 1257.4 L 128.6 1257.1 L 124.0 1264.3 L 122.8 1270.0 Z"/>
<path d="M 145.4 1221.0 L 140.3 1224.8 L 136.4 1221.8 L 138.3 1213.5 L 139.6 1210.8 L 144.0 1213.5 L 145.4 1221.0 Z"/>
<path d="M 352.7 1186.8 L 350.5 1190.5 L 343.9 1189.4 L 346.6 1186.2 L 348.6 1182.2 L 350.1 1181.4 L 351.3 1185.7 L 352.7 1186.8 Z"/>
<path d="M 329.4 1202.7 L 333.0 1206.1 L 341.7 1204.7 L 342.7 1205.6 L 340.2 1208.7 L 336.4 1211.8 L 329.5 1209.5 L 325.2 1209.4 L 324.5 1204.3 L 325.1 1202.4 L 329.4 1202.7 Z"/>
<path d="M 139.6 1416.1 L 137.3 1417.7 L 138.8 1410.4 L 144.8 1403.9 L 145.3 1408.1 L 139.6 1416.1 Z"/>
<path d="M 1190.4 253.9 L 1199.7 254.4 L 1203.9 254.0 L 1211.0 255.4 L 1239.4 269.6 L 1247.9 271.4 L 1256.7 271.6 L 1262.9 270.4 L 1268.4 266.5 L 1285.5 249.4 L 1303.5 233.7 L 1305.5 234.3 L 1305.5 238.6 L 1304.2 243.4 L 1296.2 257.7 L 1287.4 277.0 L 1285.5 286.8 L 1288.4 296.3 L 1293.9 304.2 L 1298.3 314.9 L 1303.3 329.9 L 1310.4 331.8 L 1314.3 332.0 L 1321.4 327.5 L 1328.1 321.9 L 1333.9 321.2 L 1340.0 322.1 L 1332.0 326.1 L 1324.4 330.9 L 1318.0 340.1 L 1315.6 341.9 L 1308.1 341.3 L 1303.8 341.6 L 1295.1 345.5 L 1287.4 349.8 L 1280.1 355.2 L 1272.1 358.0 L 1263.6 358.7 L 1250.4 363.1 L 1241.9 363.4 L 1225.9 359.6 L 1218.2 360.6 L 1201.2 369.2 L 1185.7 381.6 L 1172.2 395.5 L 1161.0 412.3 L 1156.4 421.1 L 1153.7 430.8 L 1153.3 437.3 L 1152.3 443.5 L 1149.7 447.9 L 1146.6 451.4 L 1137.3 449.3 L 1122.0 440.3 L 1092.3 427.3 L 1061.0 407.4 L 1043.4 397.4 L 1010.3 400.4 L 979.0 419.5 L 976.2 417.9 L 964.2 404.8 L 958.4 399.6 L 951.5 398.1 L 946.3 398.3 L 941.3 399.2 L 934.2 406.0 L 931.6 410.8 L 929.6 416.3 L 929.0 420.2 L 929.8 424.0 L 936.5 432.7 L 944.8 439.1 L 948.5 440.3 L 956.5 439.9 L 960.2 440.5 L 973.5 453.5 L 988.0 465.6 L 991.2 469.6 L 985.9 473.8 L 980.0 475.9 L 973.1 475.3 L 966.3 473.7 L 954.7 468.6 L 949.7 473.0 L 941.9 482.0 L 937.7 491.7 L 934.2 496.2 L 925.6 502.1 L 916.6 505.2 L 911.9 504.2 L 908.2 500.5 L 906.2 496.0 L 905.2 490.9 L 907.1 479.8 L 911.8 469.7 L 913.6 459.5 L 909.7 445.1 L 907.3 442.1 L 897.7 433.7 L 893.3 425.5 L 892.2 415.2 L 892.7 409.6 L 895.1 397.1 L 897.4 390.8 L 901.8 388.8 L 906.6 387.5 L 914.0 383.0 L 922.2 377.2 L 930.0 370.5 L 937.7 362.4 L 941.7 353.5 L 935.1 342.5 L 933.8 336.0 L 934.7 329.8 L 941.8 326.6 L 949.1 329.0 L 963.7 338.1 L 966.5 339.0 L 976.6 339.4 L 990.3 341.3 L 998.2 340.9 L 1002.1 339.5 L 1007.9 332.0 L 1010.7 322.5 L 1009.7 310.3 L 1009.6 298.2 L 1013.3 288.3 L 1024.7 272.4 L 1028.0 263.0 L 1029.2 240.3 L 1033.4 230.2 L 1036.7 219.8 L 1038.3 198.0 L 1033.6 177.1 L 1028.8 166.8 L 1023.4 157.0 L 1024.2 147.7 L 1028.6 139.1 L 1028.7 136.5 L 1029.8 134.2 L 1038.0 132.5 L 1041.8 130.7 L 1045.5 126.5 L 1049.8 124.1 L 1053.1 126.5 L 1055.7 130.7 L 1067.3 141.2 L 1085.5 159.9 L 1106.9 188.4 L 1120.4 202.3 L 1134.6 215.0 L 1150.5 227.9 L 1167.1 239.0 L 1177.7 244.2 L 1185.5 252.6 L 1190.4 253.9 Z"/>
<path d="M 248.1 1234.6 L 258.1 1237.4 L 262.4 1237.6 L 266.3 1236.3 L 272.3 1232.7 L 278.5 1230.0 L 283.0 1231.3 L 287.0 1234.6 L 289.1 1239.2 L 288.0 1244.0 L 281.0 1254.3 L 275.1 1265.3 L 288.5 1267.3 L 301.9 1267.1 L 298.8 1273.9 L 298.3 1279.8 L 302.4 1282.6 L 305.8 1286.4 L 304.9 1289.9 L 302.9 1293.3 L 310.2 1298.4 L 309.8 1301.8 L 307.9 1305.4 L 289.6 1328.8 L 284.3 1340.7 L 280.6 1353.7 L 277.2 1363.3 L 274.7 1373.2 L 272.8 1383.9 L 269.4 1395.0 L 270.5 1404.8 L 269.4 1414.8 L 260.2 1439.6 L 253.7 1439.1 L 245.5 1436.1 L 240.4 1436.6 L 237.7 1442.1 L 242.4 1453.5 L 227.8 1466.9 L 211.7 1475.9 L 211.6 1471.8 L 213.1 1468.6 L 215.4 1466.0 L 217.1 1462.8 L 219.5 1452.3 L 218.3 1441.6 L 213.4 1428.3 L 213.1 1423.5 L 216.4 1421.6 L 218.7 1421.0 L 219.9 1419.1 L 220.0 1414.7 L 218.4 1411.5 L 213.9 1410.4 L 209.4 1410.3 L 206.3 1415.3 L 202.0 1424.8 L 200.0 1434.5 L 200.9 1439.8 L 202.8 1444.5 L 208.6 1452.4 L 206.9 1457.1 L 204.5 1460.7 L 183.8 1452.5 L 179.3 1451.9 L 175.6 1450.1 L 171.6 1439.3 L 180.0 1436.6 L 182.5 1435.3 L 183.5 1431.9 L 184.6 1421.3 L 180.7 1412.4 L 177.3 1409.3 L 174.6 1405.6 L 176.3 1398.2 L 175.2 1388.8 L 175.1 1375.6 L 176.6 1373.4 L 184.4 1370.7 L 190.0 1363.7 L 195.0 1355.6 L 202.4 1341.5 L 208.3 1326.3 L 202.6 1325.7 L 197.7 1322.8 L 203.0 1315.6 L 201.4 1306.5 L 193.4 1295.4 L 189.1 1282.2 L 182.0 1276.4 L 178.3 1274.2 L 173.8 1277.3 L 170.1 1281.0 L 173.5 1289.6 L 173.1 1297.2 L 173.7 1304.7 L 177.2 1305.1 L 181.5 1303.2 L 184.9 1304.6 L 187.0 1308.5 L 187.5 1313.6 L 186.0 1318.6 L 182.8 1321.1 L 178.9 1320.9 L 175.0 1318.2 L 172.0 1314.3 L 164.7 1312.2 L 157.0 1316.8 L 149.6 1326.1 L 143.4 1330.8 L 146.3 1323.9 L 147.7 1316.4 L 144.7 1311.2 L 137.5 1302.5 L 135.9 1297.4 L 135.5 1291.3 L 136.7 1285.2 L 144.1 1292.2 L 147.8 1300.8 L 153.2 1304.6 L 160.0 1304.7 L 154.8 1291.9 L 152.9 1288.7 L 145.6 1283.0 L 135.7 1273.4 L 129.3 1268.8 L 131.6 1258.8 L 135.3 1256.8 L 138.4 1257.3 L 149.0 1260.8 L 150.0 1255.8 L 148.5 1253.2 L 147.6 1250.1 L 154.6 1245.7 L 166.0 1242.1 L 168.3 1240.5 L 170.4 1236.9 L 173.1 1235.0 L 181.1 1235.1 L 187.8 1231.6 L 193.4 1222.3 L 194.7 1217.2 L 196.7 1213.0 L 210.5 1205.4 L 213.9 1204.3 L 223.2 1205.2 L 231.6 1209.5 L 235.8 1218.5 L 239.4 1228.1 L 248.1 1234.6 Z"/>
<path d="M 485.2 1173.6 L 495.5 1177.5 L 506.1 1176.4 L 505.9 1193.4 L 507.4 1199.2 L 510.4 1204.3 L 508.8 1211.7 L 513.6 1214.3 L 499.5 1222.8 L 486.7 1234.1 L 481.4 1241.7 L 476.7 1249.8 L 473.9 1258.5 L 472.1 1267.8 L 467.8 1264.1 L 455.5 1249.0 L 447.7 1244.9 L 435.2 1242.7 L 431.2 1243.2 L 405.4 1257.2 L 402.0 1267.5 L 394.9 1283.1 L 391.6 1288.2 L 387.9 1289.7 L 385.3 1292.3 L 382.4 1305.6 L 374.4 1313.7 L 369.5 1313.9 L 361.2 1311.7 L 357.4 1313.0 L 362.4 1299.9 L 354.4 1298.3 L 346.5 1298.6 L 346.3 1290.1 L 341.5 1285.3 L 345.0 1279.0 L 345.1 1273.9 L 347.2 1271.1 L 348.0 1267.0 L 347.7 1263.5 L 342.8 1262.4 L 339.8 1259.9 L 340.3 1250.7 L 337.5 1250.3 L 330.5 1251.9 L 316.0 1259.1 L 312.0 1259.1 L 318.1 1254.0 L 331.0 1247.0 L 336.9 1243.0 L 349.5 1231.8 L 357.5 1226.5 L 361.7 1217.0 L 363.0 1211.3 L 365.6 1206.3 L 368.0 1198.3 L 372.1 1195.6 L 379.3 1188.7 L 383.4 1189.3 L 387.9 1197.8 L 394.0 1204.3 L 398.5 1203.8 L 406.3 1200.4 L 410.1 1199.7 L 419.3 1200.1 L 427.4 1195.9 L 430.8 1191.1 L 432.0 1185.0 L 429.0 1174.8 L 432.9 1175.8 L 436.7 1175.4 L 445.6 1168.9 L 454.7 1165.1 L 464.2 1164.1 L 474.9 1167.8 L 485.2 1173.6 Z"/>
<path d="M 997.1 509.9 L 1000.0 511.7 L 1013.9 506.9 L 1011.3 521.2 L 1009.8 535.7 L 1010.8 559.6 L 1012.1 570.5 L 1014.5 580.9 L 1020.4 588.4 L 1028.1 593.8 L 1039.4 610.8 L 1045.4 631.7 L 1049.6 641.8 L 1052.8 652.4 L 1053.8 657.3 L 1053.9 662.2 L 1052.9 668.9 L 1054.0 674.3 L 1052.8 691.2 L 1047.7 710.8 L 1047.1 720.8 L 1042.7 722.8 L 1040.1 727.4 L 1037.8 729.6 L 1035.3 731.2 L 1031.7 731.6 L 1029.1 733.5 L 1028.0 738.9 L 1026.3 743.8 L 1023.2 748.3 L 1020.7 753.3 L 1018.6 765.5 L 1017.9 778.0 L 1014.8 786.8 L 1007.4 789.0 L 998.9 788.9 L 988.1 792.9 L 985.8 795.3 L 977.2 810.6 L 974.7 819.5 L 974.6 829.2 L 977.0 841.0 L 980.3 852.6 L 982.7 874.2 L 980.1 907.0 L 977.6 917.5 L 972.2 924.7 L 968.1 928.0 L 964.5 932.0 L 959.9 942.7 L 952.2 964.1 L 951.6 969.5 L 951.6 975.0 L 949.6 982.3 L 948.2 989.4 L 949.5 997.7 L 951.8 1005.5 L 962.1 1025.4 L 966.1 1031.3 L 970.6 1036.7 L 953.1 1042.6 L 950.0 1045.3 L 939.6 1056.7 L 936.3 1067.5 L 936.5 1079.4 L 934.8 1083.7 L 931.9 1087.4 L 929.0 1089.8 L 917.3 1095.3 L 909.9 1100.7 L 902.5 1109.2 L 899.6 1113.6 L 893.9 1112.2 L 890.6 1108.3 L 893.8 1103.4 L 892.8 1097.5 L 894.4 1082.6 L 892.6 1076.6 L 898.5 1072.1 L 901.3 1064.8 L 907.5 1059.0 L 911.9 1053.9 L 912.7 1049.7 L 908.8 1045.2 L 904.6 1042.0 L 898.8 1041.9 L 893.2 1042.9 L 889.6 1047.2 L 888.4 1053.0 L 888.7 1055.7 L 888.2 1058.1 L 879.4 1066.1 L 880.6 1074.5 L 883.2 1078.7 L 886.4 1080.7 L 885.5 1083.6 L 881.3 1090.4 L 878.4 1091.0 L 873.0 1081.6 L 866.4 1076.4 L 858.1 1076.5 L 849.6 1078.3 L 843.1 1084.6 L 841.0 1089.8 L 839.6 1095.2 L 840.1 1108.3 L 837.4 1119.3 L 832.2 1128.9 L 829.7 1132.4 L 823.3 1138.9 L 818.9 1139.8 L 815.8 1136.8 L 813.2 1132.3 L 816.5 1115.9 L 816.3 1106.6 L 823.8 1101.9 L 817.7 1095.3 L 810.1 1092.7 L 799.5 1096.2 L 796.5 1100.2 L 794.5 1105.5 L 788.8 1112.2 L 782.5 1118.5 L 775.4 1129.2 L 770.6 1141.9 L 755.0 1137.8 L 746.4 1136.8 L 737.8 1137.2 L 722.5 1135.6 L 705.7 1138.2 L 686.6 1143.2 L 687.8 1139.6 L 703.5 1131.9 L 704.0 1129.7 L 702.5 1125.5 L 698.6 1125.3 L 689.2 1126.8 L 684.4 1126.1 L 682.5 1121.6 L 679.3 1119.7 L 677.2 1121.5 L 677.9 1130.2 L 675.6 1131.4 L 672.5 1129.2 L 673.4 1122.4 L 671.3 1112.4 L 671.1 1106.3 L 674.4 1101.0 L 671.0 1098.7 L 667.5 1099.6 L 662.9 1102.1 L 659.0 1105.8 L 650.5 1123.9 L 647.3 1134.3 L 653.4 1142.6 L 670.2 1154.2 L 673.1 1157.1 L 673.2 1162.1 L 671.1 1167.3 L 666.6 1169.6 L 648.1 1173.5 L 632.1 1181.1 L 627.5 1188.7 L 613.0 1218.2 L 601.3 1238.4 L 584.9 1245.4 L 566.8 1239.2 L 562.4 1232.2 L 558.9 1223.5 L 552.2 1215.6 L 546.1 1207.1 L 542.6 1196.9 L 543.1 1180.5 L 540.5 1170.6 L 542.9 1168.0 L 552.9 1162.0 L 556.1 1158.7 L 561.7 1150.9 L 563.7 1146.5 L 564.0 1140.0 L 559.5 1136.5 L 547.8 1136.6 L 536.2 1138.7 L 527.8 1135.8 L 517.0 1127.9 L 513.7 1126.2 L 502.1 1125.7 L 493.8 1127.1 L 485.6 1130.0 L 477.0 1131.0 L 474.1 1132.5 L 464.1 1142.2 L 456.2 1148.4 L 449.4 1151.4 L 434.6 1152.2 L 427.2 1154.2 L 419.4 1157.4 L 417.3 1157.1 L 409.1 1161.6 L 399.7 1165.5 L 394.7 1169.3 L 385.5 1166.8 L 367.3 1173.7 L 358.5 1174.6 L 349.4 1170.8 L 341.0 1164.6 L 332.9 1167.2 L 327.3 1176.4 L 324.6 1194.6 L 321.5 1202.7 L 320.5 1212.6 L 316.3 1211.0 L 292.0 1193.3 L 290.3 1192.7 L 270.6 1195.7 L 265.5 1197.2 L 259.2 1200.8 L 252.4 1202.4 L 246.3 1199.8 L 240.5 1195.6 L 234.8 1196.9 L 229.1 1199.8 L 226.9 1173.1 L 228.0 1169.6 L 231.5 1164.9 L 235.4 1160.9 L 245.0 1159.6 L 254.6 1160.8 L 261.5 1159.0 L 267.3 1153.7 L 273.5 1146.2 L 280.4 1140.1 L 289.8 1135.3 L 298.9 1129.8 L 306.9 1122.1 L 314.4 1113.6 L 321.4 1107.4 L 328.9 1102.2 L 340.4 1089.7 L 355.7 1075.7 L 361.6 1065.3 L 365.2 1062.4 L 378.4 1056.6 L 395.8 1052.2 L 404.0 1052.4 L 412.1 1061.5 L 416.5 1060.2 L 421.0 1057.9 L 429.9 1056.6 L 439.2 1058.1 L 448.2 1058.1 L 457.2 1057.0 L 474.5 1054.0 L 483.6 1050.4 L 492.5 1045.7 L 524.3 1042.4 L 546.1 1034.6 L 549.5 1035.2 L 552.8 1037.0 L 553.1 1042.7 L 550.4 1049.1 L 553.0 1052.9 L 557.4 1055.3 L 577.9 1056.0 L 583.7 1057.3 L 592.3 1053.0 L 600.3 1047.7 L 608.8 1040.6 L 614.7 1032.7 L 609.2 1022.7 L 608.0 1011.9 L 612.6 1000.1 L 619.2 990.2 L 627.1 984.2 L 634.3 977.3 L 649.0 957.7 L 659.6 941.8 L 663.4 922.3 L 661.1 899.2 L 670.4 882.1 L 679.2 879.2 L 696.8 871.3 L 706.1 869.0 L 707.5 872.5 L 707.2 876.9 L 693.4 891.3 L 685.5 897.2 L 680.7 899.1 L 676.4 901.7 L 674.6 906.8 L 681.6 915.2 L 683.4 921.5 L 683.0 927.5 L 683.3 932.9 L 691.3 938.8 L 700.4 940.8 L 704.2 940.7 L 707.6 939.2 L 718.0 924.8 L 720.3 922.3 L 750.1 911.7 L 764.7 903.6 L 772.8 901.6 L 780.4 897.4 L 797.4 881.2 L 803.7 873.7 L 809.4 865.4 L 813.9 855.9 L 817.5 845.5 L 822.5 839.0 L 849.4 823.6 L 858.1 815.2 L 860.9 811.2 L 864.2 799.4 L 866.5 787.2 L 869.8 777.6 L 874.2 768.6 L 880.2 759.5 L 886.8 751.0 L 890.8 742.2 L 896.5 721.4 L 899.0 709.9 L 900.9 705.7 L 903.8 702.2 L 906.3 697.8 L 908.2 692.9 L 909.1 687.9 L 910.3 673.0 L 909.6 661.3 L 905.1 651.4 L 901.4 648.6 L 897.4 648.5 L 891.4 649.3 L 886.3 645.3 L 887.3 641.8 L 892.5 641.1 L 896.1 639.3 L 898.7 635.9 L 903.5 625.2 L 906.3 613.6 L 906.6 608.6 L 902.8 599.3 L 899.8 588.1 L 899.8 582.1 L 903.0 575.2 L 907.7 569.5 L 911.9 568.2 L 916.4 567.8 L 920.5 565.7 L 924.3 562.5 L 926.5 559.0 L 929.8 549.5 L 931.1 544.1 L 929.0 529.7 L 931.2 525.7 L 934.3 523.2 L 938.4 525.1 L 942.6 525.5 L 947.5 524.9 L 952.3 526.4 L 953.2 530.1 L 956.1 554.6 L 957.8 557.9 L 961.3 560.5 L 965.2 560.1 L 968.5 556.3 L 970.8 551.2 L 975.2 550.2 L 988.8 555.6 L 993.6 551.7 L 996.8 545.7 L 999.5 535.1 L 998.2 525.5 L 994.9 521.9 L 991.5 522.6 L 988.6 525.2 L 985.2 526.7 L 965.1 531.7 L 965.2 521.0 L 969.5 505.0 L 971.9 499.9 L 975.3 497.5 L 983.7 500.3 L 987.9 502.1 L 997.1 509.9 Z"/>
<path d="M 893.7 1285.6 L 892.4 1286.6 L 888.8 1283.5 L 888.3 1280.8 L 888.9 1279.1 L 891.3 1278.8 L 896.1 1282.1 L 893.7 1285.6 Z"/>
  </g>
</svg>